<?xml version="1.0" encoding="UTF-8" standalone="no"?>
<svg width="220px" height="65px" viewBox="0 0 220 65" version="1.1" xmlns="http://www.w3.org/2000/svg" xmlns:xlink="http://www.w3.org/1999/xlink" xmlns:sketch="http://www.bohemiancoding.com/sketch/ns">
    <!-- Generator: Sketch 3.4.2 (15857) - http://www.bohemiancoding.com/sketch -->
    <title>Page 1</title>
    <desc>Created with Sketch.</desc>
    <defs>
        <path id="path-1" d="M0,0.408921933 L219.835613,0.408921933 L219.835613,64.6096654 L0,64.6096654"></path>
        <path id="path-3" d="M0,0.408921933 L219.835613,0.408921933 L219.835613,64.6096654 L0,64.6096654 L0,0.408921933 Z"></path>
    </defs>
    <g id="Page-1" stroke="none" stroke-width="1" fill="none" fill-rule="evenodd" sketch:type="MSPage">
        <g id="Final" sketch:type="MSArtboardGroup" transform="translate(-61.000000, -464.000000)">
            <g id="Page-1" sketch:type="MSLayerGroup" transform="translate(61.000000, 464.000000)">
                <g id="Group-3">
                    <mask id="mask-2" sketch:name="Clip 2" fill="white">
                        <use xlink:href="#path-1"></use>
                    </mask>
                    <g id="Clip-2"></g>
                    <path d="M212.474773,64.6096654 L7.36034944,64.6096654 C3.29566543,64.6096654 -0.00024535316,61.3145725 -0.00024535316,57.2490706 L-0.00024535316,7.76951673 C-0.00024535316,3.70401487 3.29566543,0.408921933 7.36034944,0.408921933 L212.474773,0.408921933 C216.540275,0.408921933 219.835368,3.70401487 219.835368,7.76951673 L219.835368,57.2490706 C219.835368,61.3145725 216.540275,64.6096654 212.474773,64.6096654" id="Fill-1" fill="#28D696" sketch:type="MSShapeGroup" mask="url(#mask-2)"></path>
                </g>
                <path d="M55.2195093,40.3692639 C54.2618141,42.4923866 53.8030037,43.4402677 52.5696952,45.3164015 C50.8489517,47.9359554 48.4240446,51.1991524 45.4192862,51.2269591 C42.7473903,51.2514944 42.0620372,49.488223 38.438171,49.5078513 C34.813487,49.5282974 34.0569814,51.2572193 31.3859033,51.232684 C28.3803271,51.2048773 26.0821859,48.2590037 24.3614424,45.6394498 C19.5492491,38.3140223 19.0462751,29.7168476 22.0142305,25.1467361 C24.1234498,21.8982602 27.4496208,19.9975911 30.5786914,19.9975911 C33.7641933,19.9975911 35.7670929,21.7445056 38.4005502,21.7445056 C40.9546766,21.7445056 42.5118513,19.9951375 46.1946022,19.9951375 C48.9777249,19.9951375 51.9276877,21.5106022 54.0295465,24.1317918 C47.1433011,27.9053234 48.2621115,37.7398959 55.2195093,40.3692639" id="Fill-4" fill="#FFFFFF" sketch:type="MSShapeGroup"></path>
                <path d="M43.4006022,17.0682379 C44.737777,15.3507658 45.7551747,12.9250409 45.3863271,10.4461561 C43.2010483,10.5966394 40.6436506,11.9877918 39.1510855,13.8001338 C37.7959182,15.4464535 36.6771078,17.8877175 37.1130186,20.2594647 C39.499487,20.3338885 41.9677398,18.9083866 43.4006022,17.0682379" id="Fill-6" fill="#FFFFFF" sketch:type="MSShapeGroup"></path>
                <path d="M73.1115613,20.8734201 C73.4534201,20.9355762 73.9498513,20.9511152 74.4789963,20.9511152 C77.3684387,20.9511152 78.937881,19.3358736 78.937881,16.5077695 C78.9534201,14.037881 77.5549071,12.4684387 74.6957249,12.4684387 C73.9972862,12.4684387 73.4689591,12.5305948 73.1115613,12.60829 L73.1115613,20.8734201 Z M71.7596654,11.6137918 C72.5832342,11.4894796 73.5621933,11.3962454 74.6335688,11.3962454 C76.575948,11.3962454 77.9589219,11.8468773 78.8757249,12.7015242 C79.8080669,13.556171 80.3519331,14.7673978 80.3519331,16.4611524 C80.3519331,18.1704461 79.8236059,19.5681413 78.8446468,20.5323792 C77.8656877,21.5105204 76.2496283,22.0388476 74.2148327,22.0388476 C73.2514126,22.0388476 72.4433829,21.9922305 71.7596654,21.9145353 L71.7596654,11.6137918 Z" id="Fill-8" fill="#FFFFFF" sketch:type="MSShapeGroup"></path>
                <path d="M84.0510409,18.2014424 C84.0510409,19.8485799 84.9981041,21.0908848 86.334461,21.0908848 C87.6397398,21.0908848 88.6186989,19.864119 88.6186989,18.1703643 C88.6186989,16.8961636 87.9815985,15.2801041 86.365539,15.2801041 C84.7494796,15.2801041 84.0510409,16.7718513 84.0510409,18.2014424 M90.0172119,18.1237472 C90.0172119,20.9044164 88.0895539,22.116461 86.2723048,22.116461 C84.2375093,22.116461 82.6680669,20.6247138 82.6680669,18.2480595 C82.6680669,15.7307361 84.3143866,14.2545279 86.3966171,14.2545279 C88.5565428,14.2545279 90.0172119,15.8239703 90.0172119,18.1237472" id="Fill-10" fill="#FFFFFF" sketch:type="MSShapeGroup"></path>
                <path d="M93.2653606,14.4257026 L94.2598587,18.247487 C94.4765874,19.0865948 94.6794126,19.8635465 94.8184461,20.6404981 L94.865881,20.6404981 C95.0368104,19.8790855 95.2854349,19.0710558 95.5332416,18.263026 L96.7608253,14.4257026 L97.9107138,14.4257026 L99.0753234,18.1861487 C99.3558439,19.0865948 99.5733903,19.8790855 99.7443197,20.6404981 L99.7909368,20.6404981 C99.9152491,19.8790855 100.117257,19.0865948 100.365881,18.2016877 L101.437257,14.4257026 L102.78997,14.4257026 L100.365881,21.945777 L99.1227584,21.945777 L97.9728699,18.3570781 C97.7095242,17.5179703 97.4911599,16.7720967 97.3046914,15.8863717 L97.2736134,15.8863717 C97.087145,16.7876357 96.8548773,17.5637695 96.5898959,18.3726171 L95.3786691,21.945777 L94.1347286,21.945777 L91.8668476,14.4257026 L93.2653606,14.4257026 Z" id="Fill-12" fill="#FFFFFF" sketch:type="MSShapeGroup"></path>
                <path d="M105.246283,16.4610706 C105.246283,15.684119 105.230743,15.0470186 105.184126,14.4254572 L106.396171,14.4254572 L106.473866,15.6685799 L106.504944,15.6685799 C106.877881,14.9537844 107.748067,14.2545279 108.990372,14.2545279 C110.032305,14.2545279 111.647546,14.8769071 111.647546,17.4555688 L111.647546,21.9455316 L110.280112,21.9455316 L110.280112,17.6109591 C110.280112,16.3989145 109.830297,15.3888773 108.53974,15.3888773 C107.639294,15.3888773 106.939219,16.0259777 106.706952,16.7873903 C106.644796,16.9583197 106.613717,17.1914052 106.613717,17.4244907 L106.613717,21.9455316 L105.246283,21.9455316 L105.246283,16.4610706 Z" id="Fill-14" fill="#FFFFFF" sketch:type="MSShapeGroup"></path>
                <mask id="mask-4" sketch:name="Clip 17" fill="white">
                    <use xlink:href="#path-3"></use>
                </mask>
                <g id="Clip-17"></g>
                <path d="M114.958587,10.9149442 L116.326022,10.9149442 L116.326022,21.9460223 L114.958587,21.9460223 L114.958587,10.9149442 Z" id="Fill-16" fill="#FFFFFF" sketch:type="MSShapeGroup" mask="url(#mask-4)"></path>
                <path d="M120.552149,18.2014424 C120.552149,19.8485799 121.499212,21.0908848 122.835569,21.0908848 C124.140848,21.0908848 125.119807,19.864119 125.119807,18.1703643 C125.119807,16.8961636 124.482706,15.2801041 122.866647,15.2801041 C121.250587,15.2801041 120.552149,16.7718513 120.552149,18.2014424 M126.51832,18.1237472 C126.51832,20.9044164 124.590662,22.116461 122.773413,22.116461 C120.738617,22.116461 119.169175,20.6247138 119.169175,18.2480595 C119.169175,15.7307361 120.815494,14.2545279 122.897725,14.2545279 C125.057651,14.2545279 126.51832,15.8239703 126.51832,18.1237472" id="Fill-18" fill="#FFFFFF" sketch:type="MSShapeGroup" mask="url(#mask-4)"></path>
                <path d="M133.29342,18.1079628 C131.801673,18.0768848 130.107918,18.3410483 130.107918,19.8017175 C130.107918,20.6874424 130.698401,21.1069963 131.397658,21.1069963 C132.376617,21.1069963 132.998178,20.4854349 133.214907,19.8483346 C133.262342,19.7084833 133.29342,19.5530929 133.29342,19.4132416 L133.29342,18.1079628 Z M133.495428,21.9452862 L133.385836,20.998223 L133.340037,20.998223 C132.920483,21.5878885 132.112454,22.1162156 131.04026,22.1162156 C129.518253,22.1162156 128.741301,21.0440223 128.741301,19.9571078 C128.741301,18.1390409 130.356543,17.1445428 133.262342,17.1600818 L133.262342,17.0046914 C133.262342,16.383948 133.091413,15.2643197 131.553048,15.2643197 C130.853792,15.2643197 130.123457,15.482684 129.595948,15.8245428 L129.285167,14.922461 C129.905911,14.5192639 130.807175,14.2551004 131.755056,14.2551004 C134.054833,14.2551004 134.61342,15.8245428 134.61342,17.3310112 L134.61342,20.1435762 C134.61342,20.7962156 134.644498,21.4324981 134.73855,21.9452862 L133.495428,21.9452862 Z" id="Fill-19" fill="#FFFFFF" sketch:type="MSShapeGroup" mask="url(#mask-4)"></path>
                <path d="M143.036476,17.4865651 C143.036476,17.3156357 143.020119,17.0825502 142.97432,16.9116208 C142.772312,16.0414349 142.026439,15.3266394 141.000862,15.3266394 C139.58681,15.3266394 138.74852,16.5697621 138.74852,18.2324387 C138.74852,19.7544461 139.493576,21.0131078 140.969784,21.0131078 C141.886587,21.0131078 142.725695,20.4070855 142.97432,19.3815093 C143.020119,19.1958587 143.036476,19.0093903 143.036476,18.7918439 L143.036476,17.4865651 Z M144.403093,10.9143717 L144.403093,20.0038885 C144.403093,20.6720669 144.418632,21.4326617 144.465249,21.9454498 L143.237665,21.9454498 L143.176327,20.640171 L143.145249,20.640171 C142.725695,21.4792788 141.808892,22.1163792 140.581309,22.1163792 C138.763242,22.1163792 137.364729,20.5780149 137.364729,18.2945948 C137.350007,15.7928104 138.903093,14.2544461 140.736699,14.2544461 C141.886587,14.2544461 142.663539,14.7983123 143.005398,15.4043346 L143.036476,15.4043346 L143.036476,10.9143717 L144.403093,10.9143717 Z" id="Fill-20" fill="#FFFFFF" sketch:type="MSShapeGroup" mask="url(#mask-4)"></path>
                <path d="M152.981539,18.2014424 C152.981539,19.8485799 153.928602,21.0908848 155.264959,21.0908848 C156.570238,21.0908848 157.549197,19.864119 157.549197,18.1703643 C157.549197,16.8961636 156.912097,15.2801041 155.296037,15.2801041 C153.679978,15.2801041 152.981539,16.7718513 152.981539,18.2014424 M158.94771,18.1237472 C158.94771,20.9044164 157.020052,22.116461 155.202803,22.116461 C153.168007,22.116461 151.598565,20.6247138 151.598565,18.2480595 C151.598565,15.7307361 153.244885,14.2545279 155.327115,14.2545279 C157.487041,14.2545279 158.94771,15.8239703 158.94771,18.1237472" id="Fill-21" fill="#FFFFFF" sketch:type="MSShapeGroup" mask="url(#mask-4)"></path>
                <path d="M161.760602,16.4610706 C161.760602,15.684119 161.745063,15.0470186 161.698446,14.4254572 L162.910491,14.4254572 L162.988186,15.6685799 L163.019264,15.6685799 C163.392201,14.9537844 164.262387,14.2545279 165.504691,14.2545279 C166.546625,14.2545279 168.161866,14.8769071 168.161866,17.4555688 L168.161866,21.9455316 L166.794431,21.9455316 L166.794431,17.6109591 C166.794431,16.3989145 166.343799,15.3888773 165.054059,15.3888773 C164.153613,15.3888773 163.453539,16.0259777 163.221271,16.7873903 C163.159115,16.9583197 163.128037,17.1914052 163.128037,17.4244907 L163.128037,21.9455316 L161.760602,21.9455316 L161.760602,16.4610706 Z" id="Fill-22" fill="#FFFFFF" sketch:type="MSShapeGroup" mask="url(#mask-4)"></path>
                <path d="M177.501725,12.2660223 L177.501725,14.425948 L179.459643,14.425948 L179.459643,15.4670632 L177.501725,15.4670632 L177.501725,19.5219331 C177.501725,20.4542751 177.765888,20.9826022 178.527301,20.9826022 C178.883881,20.9826022 179.148862,20.9359851 179.319792,20.8885502 L179.381948,21.9141264 C179.117784,22.0237175 178.69823,22.1005948 178.169903,22.1005948 C177.532803,22.1005948 177.020015,21.8985874 176.694513,21.5264684 C176.305219,21.1224535 176.165368,20.4542751 176.165368,19.5685502 L176.165368,15.4670632 L174.999941,15.4670632 L174.999941,14.425948 L176.165368,14.425948 L176.165368,12.6234201 L177.501725,12.2660223 Z" id="Fill-23" fill="#FFFFFF" sketch:type="MSShapeGroup" mask="url(#mask-4)"></path>
                <path d="M182.085331,10.9146989 L183.452766,10.9146989 L183.452766,15.6066691 L183.483844,15.6066691 C183.70139,15.2181933 184.043249,14.8763346 184.461985,14.6432491 C184.866,14.4101636 185.34771,14.2547732 185.860498,14.2547732 C186.871353,14.2547732 188.486595,14.8763346 188.486595,17.4713532 L188.486595,21.945777 L187.11916,21.945777 L187.11916,17.6267435 C187.11916,16.4146989 186.668528,15.3891227 185.378788,15.3891227 C184.493063,15.3891227 183.794625,16.010684 183.546,16.7565576 C183.467487,16.943026 183.452766,17.1450335 183.452766,17.4083792 L183.452766,21.945777 L182.085331,21.945777 L182.085331,10.9146989 Z" id="Fill-24" fill="#FFFFFF" sketch:type="MSShapeGroup" mask="url(#mask-4)"></path>
                <path d="M196.566892,17.455487 C196.583249,16.5853011 196.209494,15.2334052 194.671948,15.2334052 C193.288974,15.2334052 192.682952,16.5076059 192.574178,17.455487 L196.566892,17.455487 Z M192.558639,18.4344461 C192.589717,20.2835911 193.770684,21.0441859 195.137301,21.0441859 C196.11626,21.0441859 196.706743,20.8732565 197.219532,20.6565279 L197.452617,21.6346691 C196.970907,21.8522156 196.147338,22.1008401 194.950833,22.1008401 C192.636335,22.1008401 191.253361,20.5780149 191.253361,18.3101338 C191.253361,16.0414349 192.589717,14.2544461 194.779903,14.2544461 C197.235071,14.2544461 197.88771,16.4143717 197.88771,17.7973457 C197.88771,18.0770483 197.856632,18.2945948 197.841093,18.4344461 L192.558639,18.4344461 Z" id="Fill-25" fill="#FFFFFF" sketch:type="MSShapeGroup" mask="url(#mask-4)"></path>
                <path d="M82.3027361,42.3202305 L80.1976059,36.1324238 C79.7191673,34.7290037 79.3993903,33.4531673 79.0812491,32.2092268 L79.0166394,32.2092268 C78.6984981,33.4850632 78.3468253,34.7919777 77.9321784,36.1005279 L75.8270483,42.3202305 L82.3027361,42.3202305 Z M75.2529219,44.4891524 L73.0202082,51.2510855 L70.1495762,51.2510855 L77.4537398,29.7524238 L80.8036283,29.7524238 L88.1396877,51.2510855 L85.173368,51.2510855 L82.8768625,44.4891524 L75.2529219,44.4891524 Z" id="Fill-26" fill="#FFFFFF" sketch:type="MSShapeGroup" mask="url(#mask-4)"></path>
                <path d="M93.8803792,44.9678364 C93.8803792,45.3824833 93.944171,45.7652342 94.0079628,46.1160892 C94.5182974,48.0617398 96.2087807,49.401368 98.218223,49.401368 C101.185361,49.401368 102.906922,46.9772788 102.906922,43.4368327 C102.906922,40.3429294 101.28023,37.6947509 98.3139108,37.6947509 C96.4001561,37.6947509 94.6139851,39.0670929 94.0717546,41.172223 C93.9760669,41.5230781 93.8803792,41.9369071 93.8803792,42.3204758 L93.8803792,44.9678364 Z M91.1046171,40.8532639 C91.1046171,38.8748996 91.0416431,37.2809219 90.9778513,35.8128922 L93.4976283,35.8128922 L93.6252119,38.4602528 L93.6890037,38.4602528 C94.8372565,36.5792119 96.6561413,35.4620372 99.1759182,35.4620372 C102.906922,35.4620372 105.71458,38.6205502 105.71458,43.3092491 C105.71458,48.8591375 102.332796,51.6021859 98.6974796,51.6021859 C96.6561413,51.6021859 94.8691524,50.7091004 93.944171,49.1780967 L93.8803792,49.1780967 L93.8803792,57.5667212 L91.1046171,57.5667212 L91.1046171,40.8532639 Z" id="Fill-27" fill="#FFFFFF" sketch:type="MSShapeGroup" mask="url(#mask-4)"></path>
                <path d="M112.028662,44.9678364 C112.028662,45.3824833 112.092454,45.7652342 112.156245,46.1160892 C112.66658,48.0617398 114.357063,49.401368 116.367323,49.401368 C119.333643,49.401368 121.055204,46.9772788 121.055204,43.4368327 C121.055204,40.3429294 119.429331,37.6947509 116.462193,37.6947509 C114.548439,37.6947509 112.762268,39.0670929 112.220037,41.172223 C112.124349,41.5230781 112.028662,41.9369071 112.028662,42.3204758 L112.028662,44.9678364 Z M109.2529,40.8532639 C109.2529,38.8748996 109.189926,37.2809219 109.126134,35.8128922 L111.645911,35.8128922 L111.773494,38.4602528 L111.837286,38.4602528 C112.985539,36.5792119 114.804424,35.4620372 117.324201,35.4620372 C121.055204,35.4620372 123.862862,38.6205502 123.862862,43.3092491 C123.862862,48.8591375 120.481078,51.6021859 116.845762,51.6021859 C114.804424,51.6021859 113.017435,50.7091004 112.092454,49.1780967 L112.028662,49.1780967 L112.028662,57.5667212 L109.2529,57.5667212 L109.2529,40.8532639 Z" id="Fill-28" fill="#FFFFFF" sketch:type="MSShapeGroup" mask="url(#mask-4)"></path>
                <path d="M133.876461,47.8702007 C135.120401,48.6357026 136.938468,49.2736208 138.852223,49.2736208 C141.691777,49.2736208 143.349546,47.774513 143.349546,45.6055911 C143.349546,43.5961487 142.202112,42.4478959 139.298766,41.331539 C135.790216,40.0875985 133.621294,38.2695316 133.621294,35.2394201 C133.621294,31.8895316 136.396238,29.4016506 140.574602,29.4016506 C142.776238,29.4016506 144.370216,29.9119851 145.327911,30.4550335 L144.561591,32.7196431 C143.859881,32.3360743 142.424565,31.698974 140.478914,31.698974 C137.544491,31.698974 136.428134,33.4532491 136.428134,34.920461 C136.428134,36.9299033 137.735866,37.9186766 140.703004,39.0669294 C144.33832,40.4703494 146.1891,42.2246245 146.1891,45.3823197 C146.1891,48.6994944 143.733115,51.5701264 138.661665,51.5701264 C136.587613,51.5701264 134.323004,50.9641041 133.174751,50.1986022 L133.876461,47.8702007 Z" id="Fill-29" fill="#FFFFFF" sketch:type="MSShapeGroup" mask="url(#mask-4)"></path>
                <path d="M153.174059,31.3796059 L153.174059,35.8131375 L157.192944,35.8131375 L157.192944,37.9501636 L153.174059,37.9501636 L153.174059,46.2758141 C153.174059,48.1895688 153.71629,49.2740297 155.27919,49.2740297 C156.012796,49.2740297 156.555026,49.178342 156.905881,49.0826543 L157.033465,51.1877844 C156.491234,51.4110558 155.630045,51.5705353 154.545584,51.5705353 C153.237851,51.5705353 152.185286,51.1558885 151.515472,50.3903866 C150.718074,49.5610929 150.431011,48.1895688 150.431011,46.3715019 L150.431011,37.9501636 L148.038818,37.9501636 L148.038818,35.8131375 L150.431011,35.8131375 L150.431011,32.1132119 L153.174059,31.3796059 Z" id="Fill-30" fill="#FFFFFF" sketch:type="MSShapeGroup" mask="url(#mask-4)"></path>
                <path d="M161.881234,43.564171 C161.881234,46.9451375 163.826885,49.4968104 166.569933,49.4968104 C169.250007,49.4968104 171.25945,46.9770335 171.25945,43.5003792 C171.25945,40.8849145 169.9509,37.5677398 166.634543,37.5677398 C163.31655,37.5677398 161.881234,40.6297472 161.881234,43.564171 M174.130082,43.4046914 C174.130082,49.1140595 170.174989,51.6027584 166.442349,51.6027584 C162.263985,51.6027584 159.042498,48.5399331 159.042498,43.6598587 C159.042498,38.4927212 162.423465,35.4626097 166.698335,35.4626097 C171.131866,35.4626097 174.130082,38.6840967 174.130082,43.4046914" id="Fill-31" fill="#FFFFFF" sketch:type="MSShapeGroup" mask="url(#mask-4)"></path>
                <path d="M177.669383,40.629829 C177.669383,38.8117621 177.638305,37.2488625 177.542617,35.8127286 L179.998602,35.8127286 L180.09429,38.843658 L180.221056,38.843658 C180.923584,36.7704238 182.614067,35.4626914 184.495926,35.4626914 C184.814067,35.4626914 185.038156,35.4945874 185.292506,35.5583792 L185.292506,38.2057398 C185.00626,38.141948 184.719197,38.110052 184.335628,38.110052 C182.358082,38.110052 180.95548,39.6091599 180.572729,41.71429 C180.508937,42.0970409 180.445145,42.5435836 180.445145,43.0220223 L180.445145,51.2511673 L177.669383,51.2511673 L177.669383,40.629829 Z" id="Fill-32" fill="#FFFFFF" sketch:type="MSShapeGroup" mask="url(#mask-4)"></path>
                <path d="M197.573249,42.0330855 C197.605145,40.2469145 196.840461,37.4719703 193.681948,37.4719703 C190.843212,37.4719703 189.599271,40.0874349 189.376,42.0330855 L197.573249,42.0330855 Z M189.343286,44.0425279 C189.407896,47.8381413 191.831985,49.4010409 194.638825,49.4010409 C196.648268,49.4010409 197.86113,49.0510037 198.913695,48.6036431 L199.392134,50.6130855 C198.403361,51.0604461 196.712059,51.5707807 194.256074,51.5707807 C189.503584,51.5707807 186.664848,48.4441636 186.664848,43.7873606 C186.664848,39.1305576 189.407896,35.4625279 193.905219,35.4625279 C198.945591,35.4625279 200.284401,39.8960595 200.284401,42.7347955 C200.284401,43.3089219 200.22061,43.7554647 200.188714,44.0425279 L189.343286,44.0425279 Z" id="Fill-33" fill="#FFFFFF" sketch:type="MSShapeGroup" mask="url(#mask-4)"></path>
            </g>
        </g>
    </g>
</svg>