<?xml version="1.0" encoding="UTF-8" standalone="no"?>
<svg width="140px" height="75px" viewBox="0 0 140 75" version="1.1" xmlns="http://www.w3.org/2000/svg" xmlns:xlink="http://www.w3.org/1999/xlink" xmlns:sketch="http://www.bohemiancoding.com/sketch/ns">
    <!-- Generator: Sketch 3.4.2 (15857) - http://www.bohemiancoding.com/sketch -->
    <title>Group + Rectangle 57 + Page 1</title>
    <desc>Created with Sketch.</desc>
    <defs></defs>
    <g id="Page-1" stroke="none" stroke-width="1" fill="none" fill-rule="evenodd" sketch:type="MSPage">
        <g id="Final" sketch:type="MSArtboardGroup" transform="translate(-64.000000, -47.000000)">
            <g id="Group-+-Rectangle-57-+-Page-1" sketch:type="MSLayerGroup" transform="translate(64.000000, 47.000000)">
                <g id="Group" transform="translate(0.000000, 57.000000)" fill="#FFFFFF" sketch:type="MSShapeGroup">
                    <path d="M9.22098691,4.84034752 L6.92001162,10.4257319 L11.5219622,10.4257319 L9.22098691,4.84034752 L9.22098691,4.84034752 Z M14.4662209,17.6350607 L12.882754,13.7720415 L5.55921979,13.7720415 L3.97575292,17.6350607 L0.0913107662,17.6350607 L7.5138117,0.289202437 L11.0271288,0.289202437 L18.448805,17.6350607 L14.4662209,17.6350607 L14.4662209,17.6350607 Z" id="Stroke-1"></path>
                    <path d="M33.4427517,6.29205536 C33.4427517,4.668111 32.3046349,3.8315336 30.4490097,3.8315336 L26.6635342,3.8315336 L26.6635342,8.77718233 L30.5232347,8.77718233 C32.3788599,8.77718233 33.4427517,7.79297363 33.4427517,6.34126579 L33.4427517,6.29205536 L33.4427517,6.29205536 Z M33.3685267,17.6350607 L29.6572763,12.1234919 L26.6635342,12.1234919 L26.6635342,17.6350607 L22.8541418,17.6350607 L22.8541418,0.412228525 L30.7706514,0.412228525 C34.8530269,0.412228525 37.3024522,2.55206228 37.3024522,6.09521362 L37.3024522,6.14442405 C37.3024522,8.92481364 35.7932104,10.6717841 33.5912017,11.4837563 L37.8220273,17.6350607 L33.3685267,17.6350607 L33.3685267,17.6350607 Z" id="Stroke-3"></path>
                    <path d="M50.3161581,3.90567732 L50.3161581,17.6345686 L46.505941,17.6345686 L46.505941,3.90567732 L41.2367901,3.90567732 L41.2367901,0.411736421 L55.5861338,0.411736421 L55.5861338,3.90567732 L50.3161581,3.90567732 L50.3161581,3.90567732 Z" id="Stroke-5"></path>
                    <path d="M60.4115017,0.411818438 L64.2217188,0.411818438 L64.2217188,17.6346506 L60.4115017,17.6346506 L60.4115017,0.411818438 Z" id="Stroke-7"></path>
                    <path d="M74.0933976,3.85638487 L74.0933976,7.52256229 L82.3571153,7.52256229 L82.3571153,10.9664726 L74.0933976,10.9664726 L74.0933976,17.6344865 L70.2831805,17.6344865 L70.2831805,0.411654403 L83.4696657,0.411654403 L83.4696657,3.85638487 L74.0933976,3.85638487 L74.0933976,3.85638487 Z" id="Stroke-9"></path>
                    <path d="M93.9084236,4.84034752 L91.6082731,10.4257319 L96.2093989,10.4257319 L93.9084236,4.84034752 L93.9084236,4.84034752 Z M99.1536576,17.6350607 L97.5701908,13.7720415 L90.2474812,13.7720415 L88.6640144,17.6350607 L84.7795722,17.6350607 L92.2020731,0.289202437 L95.7145655,0.289202437 L103.137066,17.6350607 L99.1536576,17.6350607 L99.1536576,17.6350607 Z" id="Stroke-10"></path>
                    <path d="M114.545038,17.9299132 C109.448254,17.9299132 105.662779,14.0176836 105.662779,9.07285503 L105.662779,9.0236446 C105.662779,4.1272063 109.374029,0.116555827 114.693488,0.116555827 C117.959388,0.116555827 119.91398,1.1991854 121.522189,2.77391933 L119.097505,5.55430892 C117.761455,4.34865325 116.400663,3.61049673 114.668746,3.61049673 C111.749229,3.61049673 109.647012,6.02180805 109.647012,8.97443416 L109.647012,9.0236446 C109.647012,11.9754505 111.699746,14.4359723 114.668746,14.4359723 C116.64808,14.4359723 117.860422,13.6486053 119.221214,12.4183445 L121.645073,14.854261 C119.864497,16.7488627 117.885163,17.9299132 114.545038,17.9299132 L114.545038,17.9299132 Z" id="Stroke-11"></path>
                    <path d="M134.264231,3.90567732 L134.264231,17.6345686 L130.454839,17.6345686 L130.454839,3.90567732 L125.184039,3.90567732 L125.184039,0.411736421 L139.534207,0.411736421 L139.534207,3.90567732 L134.264231,3.90567732 L134.264231,3.90567732 Z" id="Stroke-12"></path>
                </g>
                <rect id="Rectangle-57" fill="#49E08E" sketch:type="MSShapeGroup" x="1" y="0" width="38.6230469" height="38.6230469" rx="6"></rect>
                <g id="Page-1" transform="translate(8.000000, 6.000000)" fill="#FFFFFF" sketch:type="MSShapeGroup">
                    <path d="M11.995568,7.63175769 C11.387168,7.63175769 10.892128,7.13745 10.892128,6.52995 C10.892128,5.92348846 11.387168,5.42918077 11.995568,5.42918077 C12.602928,5.42918077 13.097968,5.92348846 13.097968,6.52995 C13.097968,7.13745 12.602928,7.63175769 11.995568,7.63175769 M14.137968,6.52995 C14.137968,5.35129615 13.177008,4.39071923 11.995568,4.39071923 C10.814128,4.39071923 9.852128,5.35129615 9.852128,6.52995 C9.852128,7.71068077 10.814128,8.67021923 11.995568,8.67021923 C13.177008,8.67021923 14.137968,7.71068077 14.137968,6.52995" id="Fill-1"></path>
                    <path d="M1.04,24.9230769 L1.04,1.72696154 L23.93456,24.9230769 L1.04,24.9230769 Z M6.24,2.07692308 L23.92,2.07692308 L23.92,11.5767692 L19.92328,8.23603846 C19.66016,8.0055 19.18488,8.01069231 18.92904,8.2485 L13.82992,13.0233462 L6.24,5.40726923 L6.24,2.07692308 Z M20.42248,19.7307692 L14.44248,13.7585769 L19.4844,9.23296154 L23.92,12.9568846 L23.92,19.7307692 L20.42248,19.7307692 Z M25.29176,24.5918077 L21.46248,20.7692308 L23.57264,20.7692308 C24.14568,20.7692308 24.96,20.3008846 24.96,19.7286923 L24.96,2.26176923 C24.96,1.68853846 24.14568,1.03846154 23.57264,1.03846154 L6.07984,1.03846154 C5.5068,1.03846154 5.2,1.68853846 5.2,2.26176923 L5.2,4.36880769 L1.11696,0.371769231 C0.92248,0.177576923 0.65104,0.120461538 0.39936,0.226384615 C0.1456,0.330230769 0,0.575307692 0,0.849461538 L0,25.0674231 C0,25.4402308 0.1872,25.9615385 0.55952,25.9615385 L24.81336,25.9615385 C25.08896,25.9615385 25.33336,25.6884231 25.4384,25.4350385 C25.54344,25.1816538 25.4852,24.7839231 25.29176,24.5918077 L25.29176,24.5918077 Z" id="Fill-3"></path>
                    <path d="M6.24,14.6307808 L11.01152,19.7306654 L6.24,19.7306654 L6.24,14.6307808 Z M12.16488,20.7691269 L12.55176,20.6569731 L12.80864,19.9269346 L5.99768,13.1042423 L5.78656,12.8383962 L5.2,13.1322808 L5.2,20.0349346 L5.0804,20.7691269 L12.16488,20.7691269 Z" id="Fill-5"></path>
                </g>
            </g>
        </g>
    </g>
</svg>